<?xml version="1.0" standalone="no"?>
<!DOCTYPE svg PUBLIC "-//W3C//DTD SVG 20010904//EN"
 "http://www.w3.org/TR/2001/REC-SVG-20010904/DTD/svg10.dtd">
<svg version="1.0" xmlns="http://www.w3.org/2000/svg"
 width="1000.000000pt" height="1000.000000pt" viewBox="0 0 1000.000000 1000.000000"
 preserveAspectRatio="xMidYMid meet">
<metadata>
Created by potrace 1.11, written by Peter Selinger 2001-2013
</metadata>
<g transform="translate(0.000000,1000.000000) scale(0.100000,-0.100000)"
fill="#000000" stroke="none">
<path d="M4668 8745 c-2 -2 -35 -5 -73 -9 -39 -4 -81 -8 -95 -11 -14 -2 -43
-6 -65 -10 -272 -39 -594 -129 -867 -241 -172 -71 -506 -243 -516 -266 -2 -5
-8 -8 -14 -8 -9 0 -205 -126 -218 -140 -3 -3 -30 -23 -60 -45 -30 -22 -60 -44
-66 -50 -6 -5 -29 -23 -50 -40 -35 -28 -54 -43 -138 -115 -73 -63 -267 -261
-371 -380 -53 -61 -190 -241 -257 -340 -131 -193 -289 -492 -373 -710 -77
-197 -169 -509 -191 -647 -3 -21 -7 -40 -9 -43 -2 -3 -7 -33 -10 -65 -4 -33
-9 -63 -11 -66 -1 -3 -6 -31 -9 -63 -4 -31 -8 -67 -11 -79 -26 -137 -25 -639
2 -857 23 -180 60 -380 95 -510 37 -135 91 -305 100 -315 5 -5 9 -19 9 -31 0
-13 5 -26 10 -29 6 -3 10 -13 10 -21 0 -8 8 -33 19 -57 10 -23 31 -71 46 -107
94 -221 329 -633 349 -612 4 4 6 2 4 -5 -5 -21 145 -222 283 -376 83 -93 273
-282 332 -330 21 -18 51 -43 66 -57 29 -26 30 -27 131 -105 81 -63 240 -172
306 -210 27 -16 51 -32 54 -35 10 -10 86 -51 240 -128 273 -138 567 -244 850
-307 118 -26 207 -43 265 -50 17 -2 46 -6 65 -9 67 -11 115 -16 213 -22 l97
-7 0 510 0 510 -87 8 c-258 22 -590 109 -809 209 -42 20 -83 36 -90 36 -8 0
-14 3 -14 8 0 4 -24 18 -52 31 -98 45 -315 180 -410 255 -14 12 -35 28 -46 36
-139 106 -359 329 -469 475 -74 98 -98 132 -152 218 -114 180 -209 380 -277
581 -36 107 -88 302 -98 374 l-6 42 1255 0 1255 0 0 465 0 464 -1182 1 c-651
0 -1217 0 -1260 0 l-76 0 9 28 c4 15 18 72 30 127 52 243 167 534 302 764 48
82 164 255 198 296 150 181 286 323 399 415 36 29 67 56 70 59 3 4 27 23 55
42 27 18 57 41 67 49 69 61 378 230 544 297 259 106 662 201 822 194 l22 -1 0
510 0 511 -70 -2 c-38 -1 -71 -3 -72 -4z"/>
<path d="M5210 8241 l0 -511 43 -1 c23 0 53 -2 67 -5 14 -2 72 -11 130 -20
543 -81 1087 -360 1485 -759 126 -126 160 -164 278 -315 76 -96 198 -302 272
-454 92 -192 195 -508 220 -674 l6 -42 -708 0 c-389 -1 -952 -1 -1250 0 l-543
0 0 -465 0 -465 1251 0 1251 0 -7 -42 c-22 -138 -145 -536 -177 -575 -5 -7 -7
-17 -3 -23 3 -5 2 -10 -2 -10 -8 0 -44 -73 -42 -86 0 -4 -3 -10 -8 -13 -5 -3
-17 -24 -27 -46 -11 -22 -28 -53 -40 -70 -11 -16 -20 -32 -20 -35 1 -3 -6 -16
-14 -30 -47 -76 -72 -116 -80 -125 -5 -6 -17 -24 -28 -40 -92 -145 -356 -436
-489 -540 -21 -16 -57 -45 -79 -64 -60 -50 -210 -152 -306 -208 -101 -59 -315
-163 -335 -163 -8 0 -15 -4 -15 -8 0 -5 -6 -9 -12 -10 -7 0 -65 -20 -128 -42
-119 -43 -285 -87 -400 -106 -19 -4 -42 -8 -50 -9 -52 -10 -160 -23 -207 -24
l-33 -1 0 -511 0 -511 103 7 c100 6 147 11 197 20 14 3 45 7 70 10 189 23 616
137 782 208 18 8 69 29 113 47 132 55 373 177 437 221 14 11 29 19 32 19 18 0
307 200 338 233 9 10 19 18 22 17 9 -1 136 103 215 175 127 116 277 272 376
390 96 114 285 374 285 391 0 3 11 20 24 37 13 18 38 59 56 92 18 33 36 65 40
70 8 11 104 197 105 205 1 3 14 32 29 65 123 265 226 596 276 890 5 33 12 69
14 80 2 12 7 48 11 80 4 33 9 68 11 78 25 137 25 711 0 842 -2 11 -7 47 -11
80 -8 72 -50 310 -55 310 -1 0 -4 14 -6 30 -15 98 -101 374 -177 565 -42 105
-200 429 -237 485 -11 17 -23 38 -26 48 -4 9 -10 17 -15 17 -5 0 -9 5 -9 10 0
19 -231 353 -270 390 -3 3 -25 30 -50 60 -133 164 -352 377 -545 532 -343 275
-802 518 -1213 644 -187 57 -427 114 -542 128 -25 3 -61 8 -80 11 -48 7 -140
16 -227 22 l-73 5 0 -511z"/>
</g>
</svg>
