<?xml version="1.0" standalone="no"?>
<!DOCTYPE svg PUBLIC "-//W3C//DTD SVG 20010904//EN"
 "http://www.w3.org/TR/2001/REC-SVG-20010904/DTD/svg10.dtd">
<svg version="1.0" xmlns="http://www.w3.org/2000/svg"
 width="500.000000pt" height="500.000000pt" viewBox="0 0 500.000000 500.000000"
 preserveAspectRatio="xMidYMid meet">
<metadata>
Created by potrace 1.11, written by Peter Selinger 2001-2013
</metadata>
<g transform="translate(0.000000,500.000000) scale(0.100000,-0.100000)"
fill="#000000" stroke="none">
<path d="M3474 4031 c-134 -88 -209 -136 -219 -141 -10 -5 -45 -28 -182 -116
-46 -30 -87 -54 -93 -54 -5 0 -10 -4 -10 -8 0 -5 -12 -15 -27 -23 -16 -8 -30
-16 -33 -19 -3 -3 -14 -10 -25 -17 -92 -55 -191 -119 -197 -127 -5 -7 -8 -7
-8 -1 0 6 -3 6 -8 -1 -4 -6 -81 -58 -172 -115 -91 -57 -171 -109 -178 -116 -7
-7 -20 -13 -28 -13 -8 0 -14 -4 -14 -9 0 -5 -13 -14 -30 -21 -16 -7 -30 -16
-30 -21 0 -5 -4 -9 -9 -9 -11 0 -485 -302 -489 -312 -2 -5 -8 -8 -13 -8 -8 0
-176 -104 -312 -195 -21 -14 -42 -25 -47 -25 -6 0 -10 -4 -10 -10 0 -5 -7 -10
-15 -10 -8 0 -15 -4 -15 -10 0 -5 -4 -10 -9 -10 -6 0 -45 -22 -87 -50 -66 -41
-75 -50 -58 -57 10 -4 70 -38 132 -75 62 -38 117 -68 122 -68 6 0 10 -4 10
-10 0 -5 4 -10 9 -10 5 0 54 -26 108 -58 54 -32 105 -61 113 -65 8 -4 33 -18
55 -32 22 -14 58 -35 80 -46 22 -12 42 -24 45 -28 3 -3 24 -17 48 -30 l44 -23
26 24 c15 14 42 38 61 54 18 16 45 40 60 54 36 33 79 70 176 154 44 38 87 76
96 85 8 9 42 39 74 66 32 28 70 61 85 75 15 14 56 50 90 80 74 64 77 66 117
104 18 16 36 25 43 21 7 -4 8 -10 3 -14 -5 -3 -37 -60 -70 -126 -33 -66 -87
-172 -120 -235 -33 -63 -118 -227 -188 -364 l-128 -249 2 -365 c0 -201 2 -366
4 -368 1 -2 29 41 61 94 33 53 78 126 101 162 23 36 68 107 100 158 32 50 62
92 67 92 7 0 141 -86 173 -112 6 -4 55 -38 110 -74 55 -37 122 -82 148 -102
26 -19 50 -33 52 -30 2 2 7 19 10 38 3 19 8 42 10 50 2 8 7 35 10 59 5 44 11
76 20 121 3 14 8 45 11 70 3 24 7 47 9 50 2 4 7 29 10 56 4 27 9 58 12 69 4
11 7 29 8 40 2 21 12 85 20 125 3 14 7 41 10 60 3 19 7 46 10 60 3 14 8 39 11
55 2 17 7 44 10 60 3 17 8 44 10 60 2 17 10 66 18 110 8 44 17 96 20 115 3 19
10 58 15 85 11 54 19 100 26 155 3 19 7 46 10 60 13 63 16 77 20 110 3 19 7
46 10 60 3 14 8 41 11 60 2 19 9 58 15 85 5 28 12 68 15 90 9 67 13 90 14 90
2 0 7 26 14 75 4 25 9 52 11 60 3 13 9 44 20 115 1 11 12 74 24 140 11 66 23
138 26 160 4 22 8 47 10 55 3 8 7 33 10 55 4 22 9 51 11 65 3 14 6 32 6 40 0
8 5 20 10 27 22 28 -13 16 -78 -26z"/>
</g>
</svg>
